<?xml version="1.0" encoding="UTF-8" standalone="no"?>
<!DOCTYPE svg PUBLIC "-//W3C//DTD SVG 1.1//EN"
 "http://www.w3.org/Graphics/SVG/1.1/DTD/svg11.dtd">
<!-- Generated by graphviz version 13.1.0 (20250701.0955)
 -->
<!-- Title: scd30_basic_init Pages: 1 -->
<svg width="281pt" height="894pt"
 viewBox="0.00 0.00 281.00 894.00" xmlns="http://www.w3.org/2000/svg" xmlns:xlink="http://www.w3.org/1999/xlink">
<g id="graph0" class="graph" transform="scale(1 1) rotate(0) translate(4 890)">
<title>scd30_basic_init</title>
<!-- Node1 -->
<g id="Node000001" class="node">
<title>Node1</title>
<g id="a_Node000001"><a xlink:title="basic example init">
<polygon fill="#999999" stroke="#666666" points="88.75,-453 0,-453 0,-433 88.75,-433 88.75,-453"/>
<text xml:space="preserve" text-anchor="middle" x="44.38" y="-439.5" font-family="Helvetica,sans-Serif" font-size="10.00">scd30_basic_init</text>
</a>
</g>
</g>
<!-- Node2 -->
<g id="Node000002" class="node">
<title>Node2</title>
<g id="a_Node000002"><a xlink:href="group__scd30__basic__driver.html#ga453de319dadef71519c0f4bb4e7f05d7" target="_top" xlink:title="close the chip">
<polygon fill="white" stroke="#666666" points="234.12,-886 163.38,-886 163.38,-866 234.12,-866 234.12,-886"/>
<text xml:space="preserve" text-anchor="middle" x="198.75" y="-872.5" font-family="Helvetica,sans-Serif" font-size="10.00">scd30_deinit</text>
</a>
</g>
</g>
<!-- Node1&#45;&gt;Node2 -->
<g id="edge1_Node000001_Node000002" class="edge">
<title>Node1&#45;&gt;Node2</title>
<g id="a_edge1_Node000001_Node000002"><a xlink:title=" ">
<path fill="none" stroke="#63b8ff" d="M45.9,-453.42C49.07,-511.59 67.33,-795.71 124.75,-857 131.98,-864.72 141.92,-869.46 152.13,-872.33"/>
<polygon fill="#63b8ff" stroke="#63b8ff" points="151.22,-875.71 161.73,-874.44 152.72,-868.88 151.22,-875.71"/>
</a>
</g>
</g>
<!-- Node3 -->
<g id="Node000003" class="node">
<title>Node3</title>
<g id="a_Node000003"><a xlink:href="group__scd30__basic__driver.html#ga97d9a979cb893a45abb41b6937913483" target="_top" xlink:title="get automatic self calibration">
<polygon fill="white" stroke="#666666" points="253.25,-848 144.25,-848 144.25,-816 253.25,-816 253.25,-848"/>
<text xml:space="preserve" text-anchor="start" x="152.25" y="-834.5" font-family="Helvetica,sans-Serif" font-size="10.00">scd30_get_automatic</text>
<text xml:space="preserve" text-anchor="middle" x="198.75" y="-822.5" font-family="Helvetica,sans-Serif" font-size="10.00">_self_calibration</text>
</a>
</g>
</g>
<!-- Node1&#45;&gt;Node3 -->
<g id="edge2_Node000001_Node000003" class="edge">
<title>Node1&#45;&gt;Node3</title>
<g id="a_edge2_Node000001_Node000003"><a xlink:title=" ">
<path fill="none" stroke="#63b8ff" d="M46.29,-453.49C51.17,-507.3 75.81,-752.07 124.75,-807 127.54,-810.14 130.75,-812.88 134.22,-815.28"/>
<polygon fill="#63b8ff" stroke="#63b8ff" points="132.21,-818.16 142.62,-820.1 135.69,-812.09 132.21,-818.16"/>
</a>
</g>
</g>
<!-- Node4 -->
<g id="Node000004" class="node">
<title>Node4</title>
<g id="a_Node000004"><a xlink:href="group__scd30__basic__driver.html#gad65eb3bd5fcf0d8e17f35695117dfced" target="_top" xlink:title="get the measurement interval">
<polygon fill="white" stroke="#666666" points="261.5,-798 136,-798 136,-766 261.5,-766 261.5,-798"/>
<text xml:space="preserve" text-anchor="start" x="144" y="-784.5" font-family="Helvetica,sans-Serif" font-size="10.00">scd30_get_measurement</text>
<text xml:space="preserve" text-anchor="middle" x="198.75" y="-772.5" font-family="Helvetica,sans-Serif" font-size="10.00">_interval</text>
</a>
</g>
</g>
<!-- Node1&#45;&gt;Node4 -->
<g id="edge3_Node000001_Node000004" class="edge">
<title>Node1&#45;&gt;Node4</title>
<g id="a_edge3_Node000001_Node000004"><a xlink:title=" ">
<path fill="none" stroke="#63b8ff" d="M46.66,-453.32C52.93,-502.25 81.8,-710.36 124.75,-757 125.35,-757.65 125.96,-758.28 126.59,-758.89"/>
<polygon fill="#63b8ff" stroke="#63b8ff" points="124.37,-761.6 134.38,-765.05 128.71,-756.1 124.37,-761.6"/>
</a>
</g>
</g>
<!-- Node5 -->
<g id="Node000005" class="node">
<title>Node5</title>
<g id="a_Node000005"><a xlink:href="group__scd30__basic__driver.html#ga422b05a9d8c7ba74f4ce89805c275fb5" target="_top" xlink:title="initialize the chip">
<polygon fill="white" stroke="#666666" points="228.88,-748 168.62,-748 168.62,-728 228.88,-728 228.88,-748"/>
<text xml:space="preserve" text-anchor="middle" x="198.75" y="-734.5" font-family="Helvetica,sans-Serif" font-size="10.00">scd30_init</text>
</a>
</g>
</g>
<!-- Node1&#45;&gt;Node5 -->
<g id="edge4_Node000001_Node000005" class="edge">
<title>Node1&#45;&gt;Node5</title>
<g id="a_edge4_Node000001_Node000005"><a xlink:title=" ">
<path fill="none" stroke="#63b8ff" d="M44.98,-453.3C44.04,-493.63 46.21,-642.43 124.75,-719 133.49,-727.52 145.54,-732.36 157.34,-735.06"/>
<polygon fill="#63b8ff" stroke="#63b8ff" points="156.5,-738.46 166.96,-736.78 157.74,-731.57 156.5,-738.46"/>
</a>
</g>
</g>
<!-- Node6 -->
<g id="Node000006" class="node">
<title>Node6</title>
<g id="a_Node000006"><a xlink:href="group__scd30__interface__driver.html#ga634b34e7eb7783fb5a08feef127c1836" target="_top" xlink:title="interface print format data">
<polygon fill="white" stroke="#666666" points="257,-710 140.5,-710 140.5,-678 257,-678 257,-710"/>
<text xml:space="preserve" text-anchor="start" x="148.5" y="-696.5" font-family="Helvetica,sans-Serif" font-size="10.00">scd30_interface_debug</text>
<text xml:space="preserve" text-anchor="middle" x="198.75" y="-684.5" font-family="Helvetica,sans-Serif" font-size="10.00">_print</text>
</a>
</g>
</g>
<!-- Node1&#45;&gt;Node6 -->
<g id="edge5_Node000001_Node000006" class="edge">
<title>Node1&#45;&gt;Node6</title>
<g id="a_edge5_Node000001_Node000006"><a xlink:title=" ">
<path fill="none" stroke="#63b8ff" d="M45.93,-453.44C48.37,-488.88 61.13,-605.88 124.75,-669 126.57,-670.8 128.52,-672.47 130.57,-674.03"/>
<polygon fill="#63b8ff" stroke="#63b8ff" points="128.56,-676.89 138.89,-679.28 132.3,-670.98 128.56,-676.89"/>
</a>
</g>
</g>
<!-- Node7 -->
<g id="Node000007" class="node">
<title>Node7</title>
<g id="a_Node000007"><a xlink:href="group__scd30__interface__driver.html#gab16dd5dac8e2a5cf23d6684eb8d29a94" target="_top" xlink:title="interface delay ms">
<polygon fill="white" stroke="#666666" points="264.88,-660 132.62,-660 132.62,-640 264.88,-640 264.88,-660"/>
<text xml:space="preserve" text-anchor="middle" x="198.75" y="-646.5" font-family="Helvetica,sans-Serif" font-size="10.00">scd30_interface_delay_ms</text>
</a>
</g>
</g>
<!-- Node1&#45;&gt;Node7 -->
<g id="edge6_Node000001_Node000007" class="edge">
<title>Node1&#45;&gt;Node7</title>
<g id="a_edge6_Node000001_Node000007"><a xlink:title=" ">
<path fill="none" stroke="#63b8ff" d="M46.57,-453.4C50.79,-485.18 67.94,-581.87 124.75,-631 125.86,-631.96 127.02,-632.88 128.22,-633.75"/>
<polygon fill="#63b8ff" stroke="#63b8ff" points="126.32,-636.69 136.7,-638.79 129.89,-630.67 126.32,-636.69"/>
</a>
</g>
</g>
<!-- Node8 -->
<g id="Node000008" class="node">
<title>Node8</title>
<g id="a_Node000008"><a xlink:href="group__scd30__interface__driver.html#gaf618414e751070b4f25c6d875ee61514" target="_top" xlink:title="interface iic bus deinit">
<polygon fill="white" stroke="#666666" points="248.75,-622 148.75,-622 148.75,-590 248.75,-590 248.75,-622"/>
<text xml:space="preserve" text-anchor="start" x="156.75" y="-608.5" font-family="Helvetica,sans-Serif" font-size="10.00">scd30_interface_iic</text>
<text xml:space="preserve" text-anchor="middle" x="198.75" y="-596.5" font-family="Helvetica,sans-Serif" font-size="10.00">_deinit</text>
</a>
</g>
</g>
<!-- Node1&#45;&gt;Node8 -->
<g id="edge7_Node000001_Node000008" class="edge">
<title>Node1&#45;&gt;Node8</title>
<g id="a_edge7_Node000001_Node000008"><a xlink:title=" ">
<path fill="none" stroke="#63b8ff" d="M48.48,-453.33C56.67,-478.8 81.24,-545.14 124.75,-581 128.86,-584.39 133.46,-587.33 138.29,-589.88"/>
<polygon fill="#63b8ff" stroke="#63b8ff" points="136.54,-592.92 147.08,-593.94 139.47,-586.57 136.54,-592.92"/>
</a>
</g>
</g>
<!-- Node9 -->
<g id="Node000009" class="node">
<title>Node9</title>
<g id="a_Node000009"><a xlink:href="group__scd30__interface__driver.html#ga85e94648a46cdc60ea37d8df2206bf8a" target="_top" xlink:title="interface iic bus init">
<polygon fill="white" stroke="#666666" points="257.75,-572 139.75,-572 139.75,-552 257.75,-552 257.75,-572"/>
<text xml:space="preserve" text-anchor="middle" x="198.75" y="-558.5" font-family="Helvetica,sans-Serif" font-size="10.00">scd30_interface_iic_init</text>
</a>
</g>
</g>
<!-- Node1&#45;&gt;Node9 -->
<g id="edge8_Node000001_Node000009" class="edge">
<title>Node1&#45;&gt;Node9</title>
<g id="a_edge8_Node000001_Node000009"><a xlink:title=" ">
<path fill="none" stroke="#63b8ff" d="M50.58,-453.31C61.43,-473.74 88.53,-519.41 124.75,-543 126.89,-544.39 129.13,-545.69 131.44,-546.88"/>
<polygon fill="#63b8ff" stroke="#63b8ff" points="129.98,-550.06 140.54,-550.93 132.82,-543.67 129.98,-550.06"/>
</a>
</g>
</g>
<!-- Node10 -->
<g id="Node000010" class="node">
<title>Node10</title>
<g id="a_Node000010"><a xlink:href="group__scd30__interface__driver.html#ga3de55d952b14fc73889153e1f17e118d" target="_top" xlink:title="interface iic bus read">
<polygon fill="white" stroke="#666666" points="248.75,-534 148.75,-534 148.75,-502 248.75,-502 248.75,-534"/>
<text xml:space="preserve" text-anchor="start" x="156.75" y="-520.5" font-family="Helvetica,sans-Serif" font-size="10.00">scd30_interface_iic</text>
<text xml:space="preserve" text-anchor="middle" x="198.75" y="-508.5" font-family="Helvetica,sans-Serif" font-size="10.00">_read_cmd</text>
</a>
</g>
</g>
<!-- Node1&#45;&gt;Node10 -->
<g id="edge9_Node000001_Node000010" class="edge">
<title>Node1&#45;&gt;Node10</title>
<g id="a_edge9_Node000001_Node000010"><a xlink:title=" ">
<path fill="none" stroke="#63b8ff" d="M59.71,-453.47C75.17,-464.41 100.8,-481.55 124.75,-493 128.96,-495.02 133.39,-496.95 137.88,-498.78"/>
<polygon fill="#63b8ff" stroke="#63b8ff" points="136.43,-501.97 147.02,-502.32 138.96,-495.44 136.43,-501.97"/>
</a>
</g>
</g>
<!-- Node11 -->
<g id="Node000011" class="node">
<title>Node11</title>
<g id="a_Node000011"><a xlink:href="group__scd30__interface__driver.html#ga1829115bc8226aaba053027eaa966c65" target="_top" xlink:title="interface iic bus write">
<polygon fill="white" stroke="#666666" points="248.75,-484 148.75,-484 148.75,-452 248.75,-452 248.75,-484"/>
<text xml:space="preserve" text-anchor="start" x="156.75" y="-470.5" font-family="Helvetica,sans-Serif" font-size="10.00">scd30_interface_iic</text>
<text xml:space="preserve" text-anchor="middle" x="198.75" y="-458.5" font-family="Helvetica,sans-Serif" font-size="10.00">_write_cmd</text>
</a>
</g>
</g>
<!-- Node1&#45;&gt;Node11 -->
<g id="edge10_Node000001_Node000011" class="edge">
<title>Node1&#45;&gt;Node11</title>
<g id="a_edge10_Node000001_Node000011"><a xlink:title=" ">
<path fill="none" stroke="#63b8ff" d="M89.04,-450.16C104.12,-452.64 121.28,-455.45 137.45,-458.11"/>
<polygon fill="#63b8ff" stroke="#63b8ff" points="136.52,-461.5 146.96,-459.67 137.66,-454.59 136.52,-461.5"/>
</a>
</g>
</g>
<!-- Node12 -->
<g id="Node000012" class="node">
<title>Node12</title>
<g id="a_Node000012"><a xlink:href="group__scd30__interface__driver.html#gafacdf8e666aebc7400dd09d30c86bda6" target="_top" xlink:title="interface uart deinit">
<polygon fill="white" stroke="#666666" points="252.12,-434 145.38,-434 145.38,-402 252.12,-402 252.12,-434"/>
<text xml:space="preserve" text-anchor="start" x="153.38" y="-420.5" font-family="Helvetica,sans-Serif" font-size="10.00">scd30_interface_uart</text>
<text xml:space="preserve" text-anchor="middle" x="198.75" y="-408.5" font-family="Helvetica,sans-Serif" font-size="10.00">_deinit</text>
</a>
</g>
</g>
<!-- Node1&#45;&gt;Node12 -->
<g id="edge11_Node000001_Node000012" class="edge">
<title>Node1&#45;&gt;Node12</title>
<g id="a_edge11_Node000001_Node000012"><a xlink:title=" ">
<path fill="none" stroke="#63b8ff" d="M89.04,-435.84C102.92,-433.56 118.56,-430.99 133.57,-428.53"/>
<polygon fill="#63b8ff" stroke="#63b8ff" points="134.09,-431.99 143.39,-426.92 132.96,-425.08 134.09,-431.99"/>
</a>
</g>
</g>
<!-- Node13 -->
<g id="Node000013" class="node">
<title>Node13</title>
<g id="a_Node000013"><a xlink:href="group__scd30__interface__driver.html#gac7bb27e64c983da5631f27c884402d33" target="_top" xlink:title="interface uart flush">
<polygon fill="white" stroke="#666666" points="252.12,-384 145.38,-384 145.38,-352 252.12,-352 252.12,-384"/>
<text xml:space="preserve" text-anchor="start" x="153.38" y="-370.5" font-family="Helvetica,sans-Serif" font-size="10.00">scd30_interface_uart</text>
<text xml:space="preserve" text-anchor="middle" x="198.75" y="-358.5" font-family="Helvetica,sans-Serif" font-size="10.00">_flush</text>
</a>
</g>
</g>
<!-- Node1&#45;&gt;Node13 -->
<g id="edge12_Node000001_Node000013" class="edge">
<title>Node1&#45;&gt;Node13</title>
<g id="a_edge12_Node000001_Node000013"><a xlink:title=" ">
<path fill="none" stroke="#63b8ff" d="M59.71,-432.53C75.17,-421.59 100.8,-404.45 124.75,-393 127.85,-391.52 131.07,-390.08 134.34,-388.69"/>
<polygon fill="#63b8ff" stroke="#63b8ff" points="135.54,-391.98 143.52,-385.01 132.93,-385.49 135.54,-391.98"/>
</a>
</g>
</g>
<!-- Node14 -->
<g id="Node000014" class="node">
<title>Node14</title>
<g id="a_Node000014"><a xlink:href="group__scd30__interface__driver.html#ga06468c0a588a789b5db3ab37b63084e2" target="_top" xlink:title="interface uart init">
<polygon fill="white" stroke="#666666" points="261.12,-334 136.38,-334 136.38,-314 261.12,-314 261.12,-334"/>
<text xml:space="preserve" text-anchor="middle" x="198.75" y="-320.5" font-family="Helvetica,sans-Serif" font-size="10.00">scd30_interface_uart_init</text>
</a>
</g>
</g>
<!-- Node1&#45;&gt;Node14 -->
<g id="edge13_Node000001_Node000014" class="edge">
<title>Node1&#45;&gt;Node14</title>
<g id="a_edge13_Node000001_Node000014"><a xlink:title=" ">
<path fill="none" stroke="#63b8ff" d="M50.58,-432.69C61.43,-412.26 88.53,-366.59 124.75,-343 126.89,-341.61 129.13,-340.31 131.44,-339.12"/>
<polygon fill="#63b8ff" stroke="#63b8ff" points="132.82,-342.33 140.54,-335.07 129.98,-335.94 132.82,-342.33"/>
</a>
</g>
</g>
<!-- Node15 -->
<g id="Node000015" class="node">
<title>Node15</title>
<g id="a_Node000015"><a xlink:href="group__scd30__interface__driver.html#ga72475765725113698f20d5b58c0a03e2" target="_top" xlink:title="interface uart read">
<polygon fill="white" stroke="#666666" points="264.12,-296 133.38,-296 133.38,-276 264.12,-276 264.12,-296"/>
<text xml:space="preserve" text-anchor="middle" x="198.75" y="-282.5" font-family="Helvetica,sans-Serif" font-size="10.00">scd30_interface_uart_read</text>
</a>
</g>
</g>
<!-- Node1&#45;&gt;Node15 -->
<g id="edge14_Node000001_Node000015" class="edge">
<title>Node1&#45;&gt;Node15</title>
<g id="a_edge14_Node000001_Node000015"><a xlink:title=" ">
<path fill="none" stroke="#63b8ff" d="M48.21,-432.84C55.9,-407.19 79.7,-339.37 124.75,-305 126.29,-303.83 127.89,-302.72 129.55,-301.69"/>
<polygon fill="#63b8ff" stroke="#63b8ff" points="130.95,-304.91 138.19,-297.18 127.71,-298.7 130.95,-304.91"/>
</a>
</g>
</g>
<!-- Node16 -->
<g id="Node000016" class="node">
<title>Node16</title>
<g id="a_Node000016"><a xlink:href="group__scd30__interface__driver.html#ga2f80ae4b0abda802ba06209869bf8126" target="_top" xlink:title="interface uart write">
<polygon fill="white" stroke="#666666" points="252.12,-258 145.38,-258 145.38,-226 252.12,-226 252.12,-258"/>
<text xml:space="preserve" text-anchor="start" x="153.38" y="-244.5" font-family="Helvetica,sans-Serif" font-size="10.00">scd30_interface_uart</text>
<text xml:space="preserve" text-anchor="middle" x="198.75" y="-232.5" font-family="Helvetica,sans-Serif" font-size="10.00">_write</text>
</a>
</g>
</g>
<!-- Node1&#45;&gt;Node16 -->
<g id="edge15_Node000001_Node000016" class="edge">
<title>Node1&#45;&gt;Node16</title>
<g id="a_edge15_Node000001_Node000016"><a xlink:title=" ">
<path fill="none" stroke="#63b8ff" d="M47.1,-432.58C52.63,-402.46 72.7,-314.39 124.75,-267 127.85,-264.17 131.29,-261.66 134.94,-259.44"/>
<polygon fill="#63b8ff" stroke="#63b8ff" points="136.4,-262.62 143.64,-254.88 133.16,-256.42 136.4,-262.62"/>
</a>
</g>
</g>
<!-- Node17 -->
<g id="Node000017" class="node">
<title>Node17</title>
<g id="a_Node000017"><a xlink:href="group__scd30__basic__driver.html#gaa45f9e0d4217ecdead23368f884d4cb2" target="_top" xlink:title="set automatic self calibration">
<polygon fill="white" stroke="#666666" points="253.25,-208 144.25,-208 144.25,-176 253.25,-176 253.25,-208"/>
<text xml:space="preserve" text-anchor="start" x="152.25" y="-194.5" font-family="Helvetica,sans-Serif" font-size="10.00">scd30_set_automatic</text>
<text xml:space="preserve" text-anchor="middle" x="198.75" y="-182.5" font-family="Helvetica,sans-Serif" font-size="10.00">_self_calibration</text>
</a>
</g>
</g>
<!-- Node1&#45;&gt;Node17 -->
<g id="edge16_Node000001_Node000017" class="edge">
<title>Node1&#45;&gt;Node17</title>
<g id="a_edge16_Node000001_Node000017"><a xlink:title=" ">
<path fill="none" stroke="#63b8ff" d="M45.93,-432.56C48.37,-397.12 61.13,-280.12 124.75,-217 127.54,-214.23 130.66,-211.76 133.99,-209.57"/>
<polygon fill="#63b8ff" stroke="#63b8ff" points="135.47,-212.75 142.5,-204.82 132.06,-206.63 135.47,-212.75"/>
</a>
</g>
</g>
<!-- Node18 -->
<g id="Node000018" class="node">
<title>Node18</title>
<g id="a_Node000018"><a xlink:href="group__scd30__basic__driver.html#gaa4381b9bb4bef68b09ab89ac363be589" target="_top" xlink:title="set the chip interface">
<polygon fill="white" stroke="#666666" points="250.62,-158 146.88,-158 146.88,-138 250.62,-138 250.62,-158"/>
<text xml:space="preserve" text-anchor="middle" x="198.75" y="-144.5" font-family="Helvetica,sans-Serif" font-size="10.00">scd30_set_interface</text>
</a>
</g>
</g>
<!-- Node1&#45;&gt;Node18 -->
<g id="edge17_Node000001_Node000018" class="edge">
<title>Node1&#45;&gt;Node18</title>
<g id="a_edge17_Node000001_Node000018"><a xlink:title=" ">
<path fill="none" stroke="#63b8ff" d="M44.98,-432.7C44.04,-392.37 46.21,-243.57 124.75,-167 128.18,-163.66 132.12,-160.88 136.35,-158.58"/>
<polygon fill="#63b8ff" stroke="#63b8ff" points="137.54,-161.88 145.27,-154.64 134.71,-155.48 137.54,-161.88"/>
</a>
</g>
</g>
<!-- Node19 -->
<g id="Node000019" class="node">
<title>Node19</title>
<g id="a_Node000019"><a xlink:href="group__scd30__basic__driver.html#gad06e0dd25a67babd5f57256133799219" target="_top" xlink:title="set the measurement interval">
<polygon fill="white" stroke="#666666" points="261.5,-120 136,-120 136,-88 261.5,-88 261.5,-120"/>
<text xml:space="preserve" text-anchor="start" x="144" y="-106.5" font-family="Helvetica,sans-Serif" font-size="10.00">scd30_set_measurement</text>
<text xml:space="preserve" text-anchor="middle" x="198.75" y="-94.5" font-family="Helvetica,sans-Serif" font-size="10.00">_interval</text>
</a>
</g>
</g>
<!-- Node1&#45;&gt;Node19 -->
<g id="edge18_Node000001_Node000019" class="edge">
<title>Node1&#45;&gt;Node19</title>
<g id="a_edge18_Node000001_Node000019"><a xlink:title=" ">
<path fill="none" stroke="#63b8ff" d="M46.66,-432.68C52.93,-383.75 81.8,-175.64 124.75,-129 125.35,-128.35 125.96,-127.72 126.59,-127.11"/>
<polygon fill="#63b8ff" stroke="#63b8ff" points="128.71,-129.9 134.38,-120.95 124.37,-124.4 128.71,-129.9"/>
</a>
</g>
</g>
<!-- Node20 -->
<g id="Node000020" class="node">
<title>Node20</title>
<g id="a_Node000020"><a xlink:href="group__scd30__basic__driver.html#gaa7f7f16e19094827bf5843d65238c1da" target="_top" xlink:title="start the measurement">
<polygon fill="white" stroke="#666666" points="264.5,-70 133,-70 133,-50 264.5,-50 264.5,-70"/>
<text xml:space="preserve" text-anchor="middle" x="198.75" y="-56.5" font-family="Helvetica,sans-Serif" font-size="10.00">scd30_start_measurement</text>
</a>
</g>
</g>
<!-- Node1&#45;&gt;Node20 -->
<g id="edge19_Node000001_Node000020" class="edge">
<title>Node1&#45;&gt;Node20</title>
<g id="a_edge19_Node000001_Node000020"><a xlink:title=" ">
<path fill="none" stroke="#63b8ff" d="M46.18,-432.8C50.61,-379.36 73.66,-132.17 124.75,-79 125.36,-78.36 125.99,-77.75 126.64,-77.15"/>
<polygon fill="#63b8ff" stroke="#63b8ff" points="128.63,-80.03 134.69,-71.33 124.53,-74.36 128.63,-80.03"/>
</a>
</g>
</g>
<!-- Node21 -->
<g id="Node000021" class="node">
<title>Node21</title>
<g id="a_Node000021"><a xlink:href="group__scd30__basic__driver.html#gad903950d970a5536f27d6daf076a212e" target="_top" xlink:title="start the measurement with pressure compensation">
<polygon fill="white" stroke="#666666" points="272.75,-32 124.75,-32 124.75,0 272.75,0 272.75,-32"/>
<text xml:space="preserve" text-anchor="start" x="132.75" y="-18.5" font-family="Helvetica,sans-Serif" font-size="10.00">scd30_start_measurement</text>
<text xml:space="preserve" text-anchor="middle" x="198.75" y="-6.5" font-family="Helvetica,sans-Serif" font-size="10.00">_with_pressure_compensation</text>
</a>
</g>
</g>
<!-- Node1&#45;&gt;Node21 -->
<g id="edge20_Node000001_Node000021" class="edge">
<title>Node1&#45;&gt;Node21</title>
<g id="a_edge20_Node000001_Node000021"><a xlink:title=" ">
<path fill="none" stroke="#63b8ff" d="M46.05,-432.58C49.93,-375.62 71.17,-102.35 124.75,-41 125.2,-40.48 125.67,-39.97 126.15,-39.47"/>
<polygon fill="#63b8ff" stroke="#63b8ff" points="128.14,-42.37 133.54,-33.26 123.63,-37.01 128.14,-42.37"/>
</a>
</g>
</g>
</g>
</svg>
